# xmcd
# 
# Track frame offsets:
#     150
#     19349
#     37905
#     56667
#     79773
#     96586
#     114946
#     130303
#     147715
#     163145
#     184419
#     200701
#     215174
#     232819
#     251685
#     277494
# 
# Disc length: 3706
# 
# Revision: 0
# Processed by: cddbd v1.5.2PL0 Copyright (c) Steve Scherf et al.
# Submitted via: BonkEnc v1.0.6
# 
DISCID=000e7810
DTITLE=Gretchen Wilson - Big and Rich
DYEAR=0
DGENRE=Country
TTITLE0=Big Time
TTITLE1=Holy Water
TTITLE2=Kick My Ass
TTITLE3=Rollin' (The Ballad Of Big and R
TTITLE4=Save A Horse, Ride A Cowboy
TTITLE5=Wild West Show
TTITLE6=Here For The Party
TTITLE7=Holdin' You
TTITLE8=Homewrecker
TTITLE9=Pocahontas Proud
TTITLE10=Redneck Woman
TTITLE11=Bed, The
TTITLE12=What Happened
TTITLE13=When I Think About Cheatin'
TTITLE14=When It Rains
TTITLE15=Data Track
EXTD=
EXTT0=
EXTT1=
EXTT2=
EXTT3=
EXTT4=
EXTT5=
EXTT6=
EXTT7=
EXTT8=
EXTT9=
EXTT10=
EXTT11=
EXTT12=
EXTT13=
EXTT14=
EXTT15=
PLAYORDER=
